<svg width="461" height="80" viewBox="0 0 461 80" fill="none" xmlns="http://www.w3.org/2000/svg">
<path d="M168.056 34.8122V44.5415H132.447V34.8122H168.056ZM141.593 39.6769L138.414 59.2002L132.966 53.1032H170.197V64H124.988L128.685 39.6769L124.988 15.3537H169.872V26.2505H132.966L138.414 20.1535L141.593 39.6769ZM210.926 40.1958L212.029 37.6662C215.791 37.7526 218.882 38.3364 221.304 39.4174C223.769 40.4552 225.606 41.9254 226.817 43.828C228.028 45.6874 228.633 47.8494 228.633 50.3142C228.633 52.9519 228.028 55.3085 226.817 57.3841C225.606 59.4164 223.79 61.038 221.369 62.2487C218.991 63.4162 216.007 64 212.418 64H176.485L180.247 39.0283L176.485 15.3537H211.121C215.618 15.3537 219.12 16.4132 221.628 18.532C224.136 20.6075 225.39 23.5047 225.39 27.2234C225.39 29.2558 224.915 31.2016 223.963 33.061C223.012 34.9203 221.477 36.4987 219.358 37.7959C217.283 39.0499 214.472 39.8498 210.926 40.1958ZM189.781 60.8866L184.592 54.5951H208.786C210.732 54.5951 212.245 54.1194 213.326 53.1681C214.407 52.2168 214.948 50.8979 214.948 49.2115C214.948 47.5251 214.364 46.1847 213.196 45.1901C212.029 44.1523 210.299 43.6334 208.007 43.6334H188.03V34.4231H206.191C207.748 34.4231 209.045 33.969 210.083 33.061C211.164 32.1097 211.704 30.8341 211.704 29.2341C211.704 27.9369 211.25 26.8775 210.342 26.0559C209.434 25.1911 208.137 24.7587 206.451 24.7587H184.657L189.781 18.4671L193.089 39.0283L189.781 60.8866Z" fill="white"/>
<path d="M334.881 43.6336C334.405 47.9145 332.935 51.6765 330.47 54.9195C328.005 58.1194 324.762 60.6057 320.741 62.3786C316.763 64.1515 312.179 65.038 306.99 65.038C301.326 65.038 296.374 63.9785 292.137 61.8597C287.899 59.7409 284.591 56.7789 282.213 52.9737C279.878 49.1685 278.71 44.7363 278.71 39.677C278.71 34.6178 279.878 30.1856 282.213 26.3804C284.591 22.5752 287.899 19.6132 292.137 17.4943C296.374 15.3755 301.326 14.3161 306.99 14.3161C312.179 14.3161 316.763 15.2026 320.741 16.9755C324.762 18.7483 328.005 21.2563 330.47 24.4994C332.935 27.6993 334.405 31.4396 334.881 35.7205H321.389C320.957 33.6449 320.114 31.8936 318.86 30.4667C317.606 28.9965 315.963 27.8722 313.93 27.0939C311.941 26.3155 309.628 25.9264 306.99 25.9264C303.963 25.9264 301.347 26.4885 299.142 27.6128C296.937 28.6938 295.25 30.2721 294.083 32.3477C292.915 34.38 292.331 36.8231 292.331 39.677C292.331 42.531 292.915 44.9957 294.083 47.0713C295.25 49.1036 296.937 50.6819 299.142 51.8062C301.347 52.8872 303.963 53.4277 306.99 53.4277C309.628 53.4277 311.941 53.0602 313.93 52.3251C315.963 51.59 317.606 50.4873 318.86 49.0171C320.114 47.5469 320.957 45.7524 321.389 43.6336H334.881ZM368.128 65.038C362.377 65.038 357.318 63.9785 352.951 61.8597C348.627 59.7409 345.254 56.7789 342.832 52.9737C340.454 49.1685 339.265 44.7363 339.265 39.677C339.265 34.6178 340.454 30.1856 342.832 26.3804C345.254 22.5752 348.627 19.6132 352.951 17.4943C357.318 15.3755 362.377 14.3161 368.128 14.3161C373.923 14.3161 378.982 15.3755 383.306 17.4943C387.63 19.6132 391.003 22.5752 393.424 26.3804C395.846 30.1856 397.057 34.6178 397.057 39.677C397.057 44.7363 395.846 49.1685 393.424 52.9737C391.003 56.7789 387.63 59.7409 383.306 61.8597C378.982 63.9785 373.923 65.038 368.128 65.038ZM368.128 53.0385C371.285 53.0385 374.009 52.498 376.301 51.417C378.593 50.336 380.344 48.8009 381.555 46.8118C382.809 44.8227 383.436 42.4445 383.436 39.677C383.436 36.9096 382.809 34.5313 381.555 32.5423C380.344 30.5532 378.593 29.0181 376.301 27.9371C374.009 26.856 371.285 26.3155 368.128 26.3155C365.015 26.3155 362.312 26.856 360.021 27.9371C357.729 29.0181 355.956 30.5532 354.702 32.5423C353.448 34.5313 352.821 36.9096 352.821 39.677C352.821 42.4445 353.448 44.8227 354.702 46.8118C355.956 48.8009 357.729 50.336 360.021 51.417C362.312 52.498 365.015 53.0385 368.128 53.0385ZM428.245 15.3539C433.996 15.3539 439.034 16.3701 443.358 18.4024C447.725 20.3915 451.098 23.2238 453.476 26.8993C455.898 30.5315 457.108 34.7908 457.108 39.677C457.108 44.5633 455.898 48.8442 453.476 52.5197C451.098 56.1519 447.725 58.9842 443.358 61.0165C439.034 63.0056 433.996 64.0002 428.245 64.0002H403.987V15.3539H428.245ZM417.348 58.3572L410.927 52.0656H429.283C432.18 52.0656 434.688 51.5683 436.807 50.5738C438.969 49.536 440.634 48.0874 441.801 46.2281C442.969 44.3687 443.552 42.185 443.552 39.677C443.552 37.1258 442.969 34.9421 441.801 33.126C440.634 31.2666 438.969 29.8397 436.807 28.8451C434.688 27.8074 432.18 27.2885 429.283 27.2885H410.927L417.348 20.9969V58.3572Z" fill="white"/>
<path d="M238.9 34.0846H267.543V42.0237H238.9V34.0846Z" fill="white"/>
<path d="M37.4648 15.5681H65.07L92.6751 64.8629H65.07L37.4648 15.5681Z" fill="url(#paint0_linear_170_4699)"/>
<path d="M118.307 15.5681H90.7015L77.8849 40.2155H105.49L118.307 15.5681Z" fill="url(#paint1_linear_170_4699)"/>
<path d="M0 15.5681H27.6051L55.2103 64.8629H27.6051L0 15.5681Z" fill="url(#paint2_linear_170_4699)"/>
<rect x="317.82" y="31.1343" width="18.1613" height="18.1613" fill="#1E1E1E"/>
<defs>
<linearGradient id="paint0_linear_170_4699" x1="36.1503" y1="14.1596" x2="99.3616" y2="26.4796" gradientUnits="userSpaceOnUse">
<stop offset="0.274818" stop-color="#7E78F9"/>
<stop offset="0.873765" stop-color="#3832B4"/>
</linearGradient>
<linearGradient id="paint1_linear_170_4699" x1="119.269" y1="14.8639" x2="74.8493" y2="27.5409" gradientUnits="userSpaceOnUse">
<stop offset="0.274818" stop-color="#7E78F9"/>
<stop offset="0.873765" stop-color="#3832B4"/>
</linearGradient>
<linearGradient id="paint2_linear_170_4699" x1="-1.31453" y1="14.1596" x2="61.8967" y2="26.4796" gradientUnits="userSpaceOnUse">
<stop offset="0.274818" stop-color="#7E78F9"/>
<stop offset="0.873765" stop-color="#3832B4"/>
</linearGradient>
</defs>
</svg>
