<svg width="80" height="80" viewBox="0 0 80 80" fill="none" xmlns="http://www.w3.org/2000/svg">
<path fill-rule="evenodd" clip-rule="evenodd" d="M28.8969 6.43137C11.7343 17.4482 2.2003 30.2693 0.292582 44.9015C-2.67726 67.6756 17.6991 78.8223 28.024 68.8078C38.3489 58.791 32.1608 46.0793 24.6849 42.6029C17.209 39.1288 12.6369 40.3385 13.4346 35.6934C14.2324 31.0507 24.8672 18.1749 34.2121 12.179C34.5432 11.8975 34.7545 11.5004 34.8028 11.0686C34.8511 10.6369 34.7327 10.2029 34.4719 9.85535L32.1608 6.85054C31.1579 5.54748 30.1961 5.59759 28.8969 6.4291M74.085 6.43137C56.9223 17.4482 47.386 30.2716 45.4806 44.9015C42.5108 67.6756 62.8871 78.8223 73.212 68.8078C83.5369 58.791 77.3488 46.0793 69.8707 42.6029C62.3948 39.1288 57.8226 40.3385 58.6204 35.6934C59.4181 31.0507 70.0553 18.1749 79.4001 12.179C79.7309 11.8972 79.9417 11.5 79.9896 11.0682C80.0375 10.6364 79.9187 10.2027 79.6577 9.85535L77.3465 6.85054C76.3437 5.54748 75.3818 5.59759 74.085 6.4291" fill="#C8C6FF"/>
</svg>
