<svg width="403" height="45" viewBox="0 0 403 45" fill="none" xmlns="http://www.w3.org/2000/svg">
<path d="M185.96 22.8653L186.932 20.6351C190.249 20.7114 192.975 21.226 195.11 22.1791C197.283 23.094 198.903 24.3902 199.97 26.0676C201.038 27.7069 201.572 29.613 201.572 31.786C201.572 34.1114 201.038 36.1891 199.97 38.019C198.903 39.8108 197.302 41.2404 195.167 42.3078C193.07 43.3371 190.44 43.8518 187.276 43.8518H155.596L158.912 21.836L155.596 0.963867H186.132C190.097 0.963867 193.185 1.89787 195.396 3.76588C197.607 5.59576 198.712 8.14997 198.712 11.4285C198.712 13.2203 198.293 14.9358 197.454 16.5751C196.616 18.2143 195.262 19.6058 193.394 20.7495C191.564 21.855 189.086 22.5603 185.96 22.8653ZM167.318 41.1069L162.744 35.5601H184.073C185.789 35.5601 187.123 35.1408 188.076 34.3021C189.029 33.4634 189.506 32.3006 189.506 30.8138C189.506 29.3271 188.991 28.1453 187.962 27.2684C186.932 26.3535 185.408 25.896 183.387 25.896H165.774V17.7759H181.786C183.158 17.7759 184.302 17.3756 185.217 16.5751C186.17 15.7364 186.647 14.6117 186.647 13.2012C186.647 12.0575 186.246 11.1235 185.446 10.3992C184.645 9.63675 183.501 9.25553 182.015 9.25553H162.801L167.318 3.70869L170.235 21.836L167.318 41.1069Z" fill="white"/>
<path d="M148.165 18.119V26.6966H116.771V18.119H148.165ZM124.834 22.4078L122.032 39.6202L117.229 34.2449H150.052V43.8518H110.195L113.455 22.4078L110.195 0.963867H149.767V10.5708H117.229L122.032 5.19547L124.834 22.4078Z" fill="white"/>
<path d="M210.621 17.502H235.873V24.5013H210.621V17.502Z" fill="white"/>
<path d="M33.0293 0.391602H57.3667L81.7042 43.8513H57.3667L33.0293 0.391602Z" fill="url(#paint0_linear_170_4629)"/>
<path d="M104.303 0.391602H79.9653L68.6658 22.1215H93.0032L104.303 0.391602Z" fill="url(#paint1_linear_170_4629)"/>
<path d="M0 0.391602H24.3375L48.6749 43.8513H24.3375L0 0.391602Z" fill="url(#paint2_linear_170_4629)"/>
<path d="M377.553 0.962891C382.623 0.962891 387.064 1.85877 390.877 3.65053C394.727 5.40417 397.701 7.9012 399.797 11.1416C401.932 14.3439 403 18.099 403 22.4068C403 26.7147 401.932 30.4888 399.797 33.7292C397.701 36.9315 394.727 39.4286 390.877 41.2203C387.064 42.974 382.623 43.8508 377.553 43.8508H356.166V0.962891H377.553ZM367.946 38.8758L362.285 33.329H378.468C381.022 33.329 383.233 32.8905 385.101 32.0137C387.007 31.0988 388.475 29.8217 389.504 28.1824C390.534 26.5431 391.048 24.6179 391.048 22.4068C391.048 20.1576 390.534 18.2324 389.504 16.6313C388.475 14.992 387.007 13.734 385.101 12.8571C383.233 11.9422 381.022 11.4847 378.468 11.4847H362.285L367.946 5.93789V38.8758Z" fill="white"/>
<path d="M324.554 44.7666C319.484 44.7666 315.024 43.8326 311.173 41.9646C307.361 40.0966 304.387 37.4852 302.253 34.1304C300.156 30.7756 299.107 26.8681 299.107 22.4077C299.107 17.9474 300.156 14.0398 302.253 10.685C304.387 7.33024 307.361 4.71884 311.173 2.85084C315.024 0.982831 319.484 0.0488281 324.554 0.0488281C329.663 0.0488281 334.123 0.982831 337.935 2.85084C341.748 4.71884 344.721 7.33024 346.856 10.685C348.991 14.0398 350.058 17.9474 350.058 22.4077C350.058 26.8681 348.991 30.7756 346.856 34.1304C344.721 37.4852 341.748 40.0966 337.935 41.9646C334.123 43.8326 329.663 44.7666 324.554 44.7666ZM324.554 34.1876C327.337 34.1876 329.739 33.7111 331.759 32.758C333.78 31.8049 335.324 30.4516 336.391 28.6979C337.497 26.9443 338.05 24.8476 338.05 22.4077C338.05 19.9679 337.497 17.8711 336.391 16.1175C335.324 14.3639 333.78 13.0105 331.759 12.0574C329.739 11.1044 327.337 10.6278 324.554 10.6278C321.809 10.6278 319.427 11.1044 317.406 12.0574C315.386 13.0105 313.823 14.3639 312.717 16.1175C311.612 17.8711 311.059 19.9679 311.059 22.4077C311.059 24.8476 311.612 26.9443 312.717 28.6979C313.823 30.4516 315.386 31.8049 317.406 32.758C319.427 33.7111 321.809 34.1876 324.554 34.1876Z" fill="white"/>
<path fill-rule="evenodd" clip-rule="evenodd" d="M280.966 14.1162C279.88 12.9037 278.482 11.9697 276.77 11.314C275.016 10.6278 272.976 10.2847 270.651 10.2847C267.982 10.2847 265.676 10.7803 263.732 11.7715C261.787 12.7246 260.301 14.1161 259.271 15.9459C258.242 17.7377 257.727 19.8916 257.727 22.4077C257.727 24.9238 258.242 27.0968 259.271 28.9267C260.301 30.7184 261.787 32.1099 263.732 33.1011C265.676 34.0542 267.982 34.5307 270.651 34.5307C272.976 34.5307 275.016 34.2066 276.77 33.5586C278.561 32.9105 280.01 31.9384 281.116 30.6422C281.258 30.4754 281.394 30.3039 281.524 30.1277H294.341C293.668 32.2026 292.672 34.1087 291.351 35.8459C289.178 38.667 286.319 40.859 282.774 42.4221C279.267 43.9851 275.226 44.7666 270.651 44.7666C265.657 44.7666 261.292 43.8326 257.556 41.9646C253.82 40.0966 250.903 37.4852 248.807 34.1304C246.748 30.7756 245.719 26.8681 245.719 22.4077C245.719 17.9474 246.748 14.0398 248.807 10.685C250.903 7.33024 253.82 4.71884 257.556 2.85084C261.292 0.982831 265.657 0.0488281 270.651 0.0488281C275.226 0.0488281 279.267 0.83034 282.774 2.39337C286.319 3.95639 289.178 6.1675 291.351 9.02669C292.547 10.5789 293.477 12.2754 294.142 14.1162L280.966 14.1162Z" fill="white"/>
<defs>
<linearGradient id="paint0_linear_170_4629" x1="31.8704" y1="-0.850108" x2="87.5992" y2="10.0115" gradientUnits="userSpaceOnUse">
<stop offset="0.274818" stop-color="#7E78F9"/>
<stop offset="0.873765" stop-color="#3832B4"/>
</linearGradient>
<linearGradient id="paint1_linear_170_4629" x1="105.151" y1="-0.229253" x2="65.9895" y2="10.9472" gradientUnits="userSpaceOnUse">
<stop offset="0.274818" stop-color="#7E78F9"/>
<stop offset="0.873765" stop-color="#3832B4"/>
</linearGradient>
<linearGradient id="paint2_linear_170_4629" x1="-1.15893" y1="-0.850108" x2="54.5699" y2="10.0115" gradientUnits="userSpaceOnUse">
<stop offset="0.274818" stop-color="#7E78F9"/>
<stop offset="0.873765" stop-color="#3832B4"/>
</linearGradient>
</defs>
</svg>
